<svg width="140" height="73" viewBox="0 0 140 73" fill="none" xmlns="http://www.w3.org/2000/svg">
<path d="M55.1413 38.552V44.408L31.5253 33.368C30.3253 32.84 29.7973 31.832 29.7973 30.824C29.7973 29.768 30.3253 28.808 31.5253 28.232L55.1413 17.192V23.048L38.3893 30.824L55.1413 38.552ZM74.625 11.7H80.725L63.575 48.9H57.125L74.625 11.7ZM82.725 44.408V38.552L99.477 30.824L82.725 23.048V17.192L106.341 28.232C107.493 28.808 108.069 29.768 108.069 30.824C108.069 31.832 107.493 32.84 106.341 33.368L82.725 44.408Z" fill="white"/>
<path d="M15.5618 60.908C15.5618 63.236 13.5098 65 10.7258 65H5.34975V59.996H7.84575V62.936H10.7258C12.1058 62.936 13.1018 62.168 13.1018 61.016C13.1018 59.888 12.0698 59.06 10.7258 59.06H5.34975L6.93375 56.972H10.7258C13.5338 56.972 15.5618 58.592 15.5618 60.908ZM28.3122 65H18.9762L20.4762 62.936H22.4922C22.9722 62.936 23.5362 62.936 23.9202 62.96C23.7042 62.672 23.3682 62.18 23.1042 61.796L21.6642 59.672L17.8962 65H14.9562L20.1042 57.74C20.4402 57.272 20.9322 56.84 21.7122 56.84C22.4562 56.84 22.9482 57.236 23.2962 57.74L28.3122 65ZM27.483 56.972H36.603L34.995 59.06H32.127V65H29.643V59.06H25.875L27.483 56.972ZM47.5544 65H38.2184L39.7184 62.936H41.7344C42.2144 62.936 42.7784 62.936 43.1624 62.96C42.9464 62.672 42.6104 62.18 42.3464 61.796L40.9064 59.672L37.1384 65H34.1984L39.3464 57.74C39.6824 57.272 40.1744 56.84 40.9544 56.84C41.6984 56.84 42.1904 57.236 42.5384 57.74L47.5544 65ZM59.0356 59.984C59.0356 61.76 57.5836 62.948 55.0876 62.948H50.8876V65H48.4156V60.896H55.3276C56.0956 60.896 56.5396 60.524 56.5396 59.972C56.5396 59.408 56.0956 59.06 55.3276 59.06H48.4156L50.0596 56.972H55.0996C57.5836 56.972 59.0356 58.196 59.0356 59.984ZM70.211 63.44L71.687 65H68.363L66.575 62.876H62.759V65H60.275V60.896H67.259C68.027 60.896 68.627 60.548 68.627 59.996C68.627 59.372 68.111 59.06 67.259 59.06H60.275L61.895 56.972H67.055C68.879 56.972 71.183 57.548 71.183 59.84C71.183 61.088 70.403 62.12 69.083 62.384C69.359 62.588 69.659 62.876 70.211 63.44ZM77.9033 56.84C81.8033 56.84 83.7713 58.112 83.7713 60.98C83.7713 63.848 81.8033 65.132 77.9033 65.132C73.9913 65.132 72.0353 63.848 72.0353 60.98C72.0353 58.112 73.9913 56.84 77.9033 56.84ZM77.9033 63.044C80.3993 63.044 81.2993 62.708 81.2993 60.98C81.2993 59.252 80.3993 58.928 77.9033 58.928C75.4073 58.928 74.5073 59.252 74.5073 60.98C74.5073 62.708 75.4073 63.044 77.9033 63.044ZM86.0215 62.936H87.4015C89.2975 62.936 89.9215 62.504 89.9215 61.352V56.972H92.4175V61.352C92.4175 63.788 90.7375 65 87.4015 65H84.4015L86.0215 62.936ZM96.3106 62.936H103.139L101.543 65H93.8146V56.972H103.115L101.507 59.06H96.3106V60.02H102.671L101.243 61.844H96.3106V62.936ZM108.57 62.936H114.198L112.602 65H108.57C105.786 65 103.734 63.236 103.734 60.908C103.734 58.556 105.786 56.972 108.57 56.972H114.198L112.602 59.06H108.57C107.226 59.06 106.218 59.864 106.218 61.016C106.218 62.156 107.214 62.936 108.57 62.936ZM115.913 56.972H125.033L123.425 59.06H120.557V65H118.073V59.06H114.305L115.913 56.972ZM128.855 60.176H133.223C135.179 60.176 136.235 60.908 136.235 62.372C136.235 64.016 135.239 65 132.791 65H125.315L126.911 62.936H132.983C133.571 62.936 133.835 62.768 133.835 62.348C133.835 61.94 133.571 61.772 132.983 61.772H128.615C126.551 61.772 125.603 60.848 125.603 59.468C125.603 57.956 126.611 56.972 129.047 56.972H136.019L134.423 59.06H128.855C128.279 59.06 128.003 59.204 128.003 59.612C128.003 60.02 128.279 60.176 128.855 60.176Z" fill="white"/>
</svg>
